# xmcd
#
# Track frame offsets:
#	150
#	15895
#	33441
#	48093
#	64072
#	78560
#	91721
#	107032
#	123718
#	138621
#	154882
#	173823
#	186892
#	201405
#
# Disc length: 2877 seconds
#
# Revision: 1
# Processed by: cddbd v1.5.2PL0 Copyright (c) Steve Scherf et al.
# Submitted via: EZCDAudioConverter 4.0.5.1
#
DISCID=b80b3b0e
DTITLE=Guilherme and Santiago - (Guilherme and Santiago) Acústico
DYEAR=2005
DGENRE=Sertanejo
TTITLE0=Valeu Esperar
TTITLE1=E Pra Sempre Te Amar
TTITLE2=Essa Paixão Me Machucou
TTITLE3=Eu Gosto De Mulher
TTITLE4=Magia and Mistério
TTITLE5=Preciso Desse Amor
TTITLE6=Pra Que Chorar
TTITLE7=Só Faltava Você
TTITLE8=Vem Brincar De Amar
TTITLE9=Alô Meu Povo
TTITLE10=Blusa Vermelha/Ultimo Adeus
TTITLE11=Cada Vez Mais
TTITLE12=Coração
TTITLE13=Do Outro Lado Da Cidade
EXTD=
EXTT0=
EXTT1=
EXTT2=
EXTT3=
EXTT4=
EXTT5=
EXTT6=
EXTT7=
EXTT8=
EXTT9=
EXTT10=
EXTT11=
EXTT12=
EXTT13=
PLAYORDER=
